# xmcd
#
# Track frame offsets: 
#        150
#        14643
#        28235
#        46098
#        62407
#        78140
#        89416
#        103706
#        117471
#        127231
#        147399
#
# Disc length: 2268 seconds
#
# Revision: 1
# Processed by: cddbd v1.5.2PL0 Copyright (c) Steve Scherf et al.
# Submitted via: ExactAudioCopy v1.0b3
#
DISCID=9708da0b
DTITLE=Alexander Dolgov and The Rain Group - Blues News
DYEAR=1993
DGENRE=Blues
TTITLE0=Blues News - Think Of You
TTITLE1=Blues News - Hey, Baby
TTITLE2=Blues News - 'Coz I Luv You
TTITLE3=Blues News - The Better Day
TTITLE4=Blues News - Ra-Ra-Ra
TTITLE5=Blues News - Baby, Please Don't Go
TTITLE6=Blues News - August
TTITLE7=Blues News - Best Friend Blues
TTITLE8=Blues News - Boogie Woogie Girl
TTITLE9=Blues News - Suicide
TTITLE10=Blues News - Rain In The Night
EXTD=
EXTT0=
EXTT1=
EXTT2=
EXTT3=
EXTT4=
EXTT5=
EXTT6=
EXTT7=
EXTT8=
EXTT9=
EXTT10=
PLAYORDER=
